<svg xmlns="http://www.w3.org/2000/svg" width="192" height="107"><defs><filter id="a" width="108.1%" height="254.7%" x="-4%" y="-77.3%" filterUnits="objectBoundingBox"><feOffset in="SourceAlpha" result="shadowOffsetOuter1"/><feGaussianBlur in="shadowOffsetOuter1" result="shadowBlurOuter1" stdDeviation="15"/><feColorMatrix in="shadowBlurOuter1" result="shadowMatrixOuter1" values="0 0 0 0 0 0 0 0 0 0 0 0 0 0 0 0 0 0 0.2 0"/><feMerge><feMergeNode in="shadowMatrixOuter1"/><feMergeNode in="SourceGraphic"/></feMerge></filter></defs><g fill="none" fill-rule="evenodd" filter="url(#a)" transform="translate(-12 16)"><path fill="#000105" d="M128 29h3.158v15.069H139V47h-11V29m12 18h3V29h-3zm9.803-18l9.083 12.394V29H162v18h-2.803l-9.083-12.368V47H147V29h2.803M169 36.303h7v2.931h-7v4.835h6.985V47H166V29h9.985v2.932H169v4.37M72.889 29H76v11.275C76 44.168 73.278 47 69 47c-4.278 0-7-2.832-7-6.725V29h3.111v10.896c0 2.528 1.296 4.222 3.889 4.222 2.567 0 3.889-1.694 3.889-4.222V29m26.06 13.077L101 44.041S98.641 47 94.103 47C88.923 47 85 43.146 85 38s3.923-9 9.103-9c4.307 0 6.64 2.735 6.64 2.735l-2.076 1.964s-1.616-1.914-4.564-1.914c-3.54 0-5.975 2.859-5.975 6.215 0 3.357 2.436 6.215 5.975 6.215 3.153 0 4.846-2.138 4.846-2.138m8.083-5.003L113.35 29h3.79l-6.923 8.846L118 47h-4.018l-6.95-8.126V47H104V29h3.032v8.074m-63.895.918c0-3.353 2.341-6.16 5.968-6.16 3.626 0 5.967 2.807 5.967 6.16 0 3.354-2.34 6.16-5.967 6.16s-5.968-2.806-5.968-6.16zm18.451 7.111a.428.428 0 00-.11.017l-.203.056a14.4 14.4 0 01-1.01.265 4.937 4.937 0 01-3.698-.64 6.826 6.826 0 01-.77-.563c1.514-1.592 2.412-3.768 2.412-6.246 0-5.142-3.858-8.992-9.104-8.992C43.858 29 40 32.85 40 37.992c0 5.142 3.858 8.993 9.105 8.993 1.726 0 3.3-.42 4.637-1.161.467.254.807.44 1.206.611.872.376 1.78.565 2.69.565.6 0 1.2-.082 1.79-.248 1.192-.335 1.764-.6 2.338-.89a.397.397 0 00.234-.361.405.405 0 00-.412-.398zM79 47h3V29h-3z"/><path fill="#C42342" d="M129 59.521a.666.666 0 00-.855-.63c-.004 0-.332.094-.332.094-.828.24-.915.265-1.652.437-2.032.473-4.293.077-6.048-1.059a11.969 11.969 0 01-1.641-1.262 34.269 34.269 0 00-.594-.514 4.813 4.813 0 01-.252-.237c5.557-4.495 9.103-11.282 9.103-18.862 0-13.503-11.25-24.488-25.08-24.488C93.096 13 85.53 17.205 81 23.608l2.715 1.53c3.98-5.493 10.535-9.086 17.935-9.086 12.105 0 21.953 9.616 21.953 21.436s-9.848 21.436-21.953 21.436c-7.376 0-13.913-3.57-17.896-9.032l-2.715 1.53c4.532 6.373 12.08 10.554 20.61 10.554a25.4 25.4 0 0011.97-2.974c.283.17.559.335.906.523.358.193.669.365.949.52.774.426 1.333.734 1.991 1.021 1.426.621 2.912.934 4.4.934.98 0 1.963-.136 2.927-.41 1.951-.553 2.887-.994 3.825-1.47l.066-.04a.66.66 0 00.317-.559"/></g></svg>